<svg width="411" height="412" viewBox="0 0 411 412" fill="none" xmlns="http://www.w3.org/2000/svg">
<g clip-path="url(#clip0_1_2)">
<path fill-rule="evenodd" clip-rule="evenodd" d="M53.4671 215.103C30.5075 220.401 22.3381 248.886 38.9997 265.548L146.3 372.848C162.961 389.51 191.446 381.34 196.745 358.381L222.784 245.544C225.363 234.366 234.092 225.638 245.27 223.058L358.106 197.019C381.066 191.72 389.235 163.236 372.574 146.574L265.274 39.2739C248.612 22.6123 220.127 30.7817 214.829 53.7413L188.79 166.578C186.21 177.756 177.482 186.484 166.304 189.064L53.4671 215.103ZM182.104 315C177.062 338.193 148.359 346.623 131.576 329.84L82.0077 280.272C65.2246 263.489 73.6548 234.785 96.848 229.743L205.787 206.061L229.469 97.1222C234.511 73.929 263.214 65.4988 279.998 82.2819L329.566 131.85C346.349 148.633 337.919 177.337 314.726 182.379L205.787 206.061L182.104 315Z" fill="black"/>
<path fill-rule="evenodd" clip-rule="evenodd" d="M57.3513 241.416C35.6606 250.621 32.5617 280.091 51.8634 293.607L176.166 380.644C195.467 394.159 222.101 381.168 223.332 357.637L229.382 241.993C229.981 230.536 237.061 220.425 247.622 215.944L354.222 170.706C375.913 161.501 379.012 132.031 359.71 118.515L235.408 31.4779C216.106 17.9627 189.473 30.9543 188.242 54.4852L182.192 170.129C181.592 181.585 174.512 191.697 163.952 196.178L57.3513 241.416ZM201.381 317.457C200.443 341.174 173.64 354.46 154.197 340.846L96.7748 300.638C77.3322 287.025 80.6501 257.293 102.615 248.301L205.787 206.061L210.192 94.6649C211.13 70.9484 237.934 57.662 257.376 71.2758L314.799 111.484C334.241 125.097 330.923 154.829 308.958 163.821L205.787 206.061L201.381 317.457Z" fill="#353535"/>
<path fill-rule="evenodd" clip-rule="evenodd" d="M65.7457 266.654C45.9829 279.486 48.0486 309.047 69.404 319.005L206.932 383.135C228.287 393.094 252.26 375.674 249.386 352.287L235.263 237.35C233.864 225.963 239.08 214.776 248.702 208.529L345.828 145.468C365.591 132.636 363.525 103.075 342.17 93.1169L204.642 28.9866C183.286 19.0284 159.313 36.4476 162.187 59.8347L176.311 174.772C177.71 186.159 172.493 197.346 162.872 203.593L65.7457 266.654ZM220.792 316.53C223.987 340.049 199.898 357.788 178.386 347.757L114.854 318.131C93.3429 308.1 91.4476 278.245 111.518 265.574L205.787 206.061L190.782 95.5922C187.587 72.0732 211.676 54.3343 233.187 64.3651L296.719 93.9907C318.231 104.022 320.126 133.877 300.056 146.548L205.787 206.061L220.792 316.53Z" fill="#737373"/>
<path fill-rule="evenodd" clip-rule="evenodd" d="M78.3951 290.052C61.1607 306.12 68.3283 334.873 91.0885 340.972L237.663 380.246C260.423 386.345 281.007 365.028 274.116 342.495L240.248 231.756C236.893 220.785 240.088 208.862 248.479 201.039L333.178 122.07C350.413 106.002 343.245 77.2487 320.485 71.1501L173.911 31.8756C151.15 25.777 130.566 47.0944 137.458 69.6272L171.325 180.366C174.68 191.336 171.486 203.26 163.095 211.083L78.3951 290.052ZM239.747 312.246C246.977 334.853 226.334 356.505 203.408 350.362L135.696 332.219C112.77 326.076 105.719 297.003 123.284 281.04L205.787 206.061L171.827 99.8761C164.597 77.2691 185.24 55.6167 208.166 61.7597L275.877 79.903C298.803 86.046 305.854 115.119 288.289 131.082L205.787 206.061L239.747 312.246Z" fill="#D2D2D2"/>
<path fill-rule="evenodd" clip-rule="evenodd" d="M94.9153 310.897C80.7329 329.714 92.7846 356.786 116.258 358.839L267.426 372.065C290.899 374.119 307.469 349.551 296.769 328.557L244.187 225.381C238.977 215.16 240.053 202.863 246.958 193.702L316.658 101.225C330.841 82.4081 318.789 55.3362 295.316 53.2826L144.148 40.0571C120.674 38.0034 104.105 62.5713 114.804 83.5652L167.387 186.741C172.596 196.962 171.52 209.258 164.616 218.42L94.9153 310.897ZM257.67 304.736C268.715 325.744 252.146 350.652 228.502 348.583L158.668 342.473C135.024 340.405 123.031 312.998 137.558 294.227L205.787 206.061L153.904 107.386C142.858 86.3783 159.427 61.4703 183.072 63.5389L252.905 69.6485C276.55 71.7172 288.542 99.124 274.016 117.895L205.787 206.061L257.67 304.736Z" fill="#EDEDED"/>
<path fill-rule="evenodd" clip-rule="evenodd" d="M94.9153 310.897C80.7329 329.714 92.7846 356.786 116.258 358.839L267.426 372.065C290.899 374.119 307.469 349.551 296.769 328.557L244.187 225.381C238.977 215.16 240.053 202.863 246.958 193.702L316.658 101.225C330.841 82.4081 318.789 55.3362 295.316 53.2826L144.148 40.0571C120.674 38.0034 104.105 62.5713 114.804 83.5652L167.387 186.741C172.596 196.962 171.52 209.258 164.616 218.42L94.9153 310.897ZM257.67 304.736C268.715 325.744 252.146 350.652 228.502 348.583L158.668 342.473C135.024 340.405 123.031 312.998 137.558 294.227L205.787 206.061L153.904 107.386C142.858 86.3783 159.427 61.4703 183.072 63.5389L252.905 69.6485C276.55 71.7172 288.542 99.124 274.016 117.895L205.787 206.061L257.67 304.736Z" fill="#E9E9E9"/>
</g>
<defs>
<clipPath id="clip0_1_2">
<rect width="410.122" height="411.259" fill="white" transform="translate(0.72583 0.431702)"/>
</clipPath>
</defs>
</svg>
