<?xml version="1.0" standalone="no"?>
<!DOCTYPE svg PUBLIC "-//W3C//DTD SVG 20010904//EN"
 "http://www.w3.org/TR/2001/REC-SVG-20010904/DTD/svg10.dtd">
<svg version="1.0" xmlns="http://www.w3.org/2000/svg"
 width="824.000000pt" height="824.000000pt" viewBox="0 0 824.000000 824.000000"
 preserveAspectRatio="xMidYMid meet">
<metadata>
Created by potrace 1.14, written by Peter Selinger 2001-2017
</metadata>
<g transform="translate(0.000000,824.000000) scale(0.100000,-0.100000)"
fill="#000000" stroke="none">
<path d="M3877 7564 c-1 -1 -29 -5 -62 -9 -32 -3 -63 -9 -68 -12 -5 -3 -43 -7
-85 -8 -81 -4 -159 -17 -204 -34 -15 -5 -51 -13 -80 -16 -64 -7 -145 -28 -213
-54 -27 -10 -66 -21 -85 -25 -19 -3 -55 -12 -80 -21 -25 -9 -49 -18 -55 -19
-5 -1 -30 -12 -55 -25 -25 -12 -67 -29 -95 -38 -60 -18 -165 -67 -209 -97 -87
-60 -193 -169 -243 -251 -46 -75 -98 -211 -111 -295 -8 -47 -7 -226 1 -270 15
-90 56 -200 95 -260 9 -14 17 -27 17 -30 0 -3 21 -34 45 -69 54 -76 66 -94
104 -152 16 -24 33 -45 37 -47 5 -2 9 -8 9 -12 0 -11 92 -144 102 -148 4 -2 8
-8 8 -12 0 -5 47 -77 105 -160 58 -83 105 -155 105 -160 0 -4 7 -10 15 -14 8
-3 15 -10 15 -17 0 -6 14 -28 30 -49 17 -21 30 -42 30 -48 0 -6 4 -12 8 -14 5
-1 33 -39 62 -83 29 -44 56 -82 60 -85 3 -3 17 -23 30 -45 13 -22 27 -42 30
-45 3 -3 39 -54 80 -115 41 -60 77 -111 82 -113 4 -2 8 -9 8 -16 0 -7 8 -21
18 -32 26 -28 96 -138 94 -146 -1 -5 2 -8 8 -8 5 0 10 -4 10 -9 0 -5 10 -30
22 -57 12 -27 22 -51 23 -54 0 -3 4 -11 8 -17 5 -7 6 -13 2 -13 -3 0 -1 -8 4
-17 5 -10 12 -42 16 -71 5 -43 3 -57 -14 -81 -12 -16 -21 -31 -21 -34 0 -9
-42 -57 -100 -117 -30 -30 -102 -89 -160 -130 -58 -41 -109 -78 -115 -83 -54
-43 -276 -197 -284 -197 -6 0 -11 -4 -11 -8 0 -4 -20 -21 -44 -36 -24 -15 -52
-35 -63 -44 -10 -9 -48 -37 -83 -61 -36 -25 -66 -48 -68 -53 -2 -4 -8 -8 -12
-8 -5 0 -38 -21 -73 -47 -36 -27 -73 -54 -83 -61 -11 -7 -61 -43 -113 -80 -51
-37 -153 -108 -225 -159 -72 -51 -135 -96 -141 -100 -5 -5 -26 -20 -45 -33
-19 -13 -41 -30 -48 -37 -7 -7 -17 -13 -20 -13 -9 0 -118 -105 -152 -145 -83
-101 -140 -237 -166 -393 -8 -48 -8 -188 0 -227 3 -16 9 -46 12 -65 13 -77 70
-202 134 -295 30 -43 110 -126 155 -160 15 -11 50 -42 79 -70 80 -77 165 -145
183 -145 4 0 28 -18 53 -40 69 -61 68 -61 144 -105 39 -22 103 -61 141 -86 39
-25 99 -58 135 -74 36 -15 81 -38 100 -50 46 -28 145 -73 175 -80 6 -2 29 -8
53 -14 72 -20 126 -23 427 -25 160 -1 297 -5 305 -8 8 -4 29 -11 45 -16 43
-15 227 -81 245 -89 8 -3 20 -7 25 -9 6 -2 61 -21 124 -43 63 -22 137 -43 165
-48 67 -9 209 -9 266 1 25 5 60 9 77 10 18 0 33 3 33 6 0 3 21 5 48 6 42 0
123 10 130 15 1 1 7 3 12 4 6 1 12 4 15 5 6 3 9 4 50 13 17 3 50 9 74 12 23 4
53 10 65 14 11 5 24 9 29 9 34 4 77 16 77 22 0 4 26 12 58 19 71 16 196 58
236 80 17 10 58 26 91 36 163 50 327 172 419 310 78 118 135 269 141 380 2 27
4 52 5 55 8 20 -6 155 -22 215 -6 22 -11 45 -13 50 -11 48 -65 158 -112 227
-27 39 -55 80 -63 93 -51 78 -186 272 -196 283 -7 6 -16 21 -19 32 -3 11 -11
20 -16 20 -5 0 -9 7 -9 15 0 8 -4 15 -10 15 -5 0 -10 6 -10 14 0 8 -4 16 -8
18 -4 2 -46 59 -93 128 -46 69 -90 131 -96 138 -7 7 -13 17 -13 21 0 4 -8 16
-17 27 -10 11 -63 87 -118 169 -55 83 -103 152 -106 155 -3 3 -30 41 -59 85
-29 44 -66 97 -82 118 -17 20 -27 37 -23 37 3 0 -1 7 -10 16 -24 24 -118 173
-142 224 -23 51 -49 137 -57 194 -6 33 -1 46 36 100 69 101 119 149 270 258
244 177 602 428 609 428 6 0 7 5 4 10 -3 6 -1 10 5 10 15 0 829 583 871 623
48 47 111 124 128 155 8 15 17 29 20 32 19 16 75 160 85 220 3 14 5 25 6 25
12 0 18 177 9 245 -13 98 -18 120 -40 183 -46 133 -119 241 -225 333 -37 32
-89 80 -116 106 -52 51 -149 128 -186 147 -13 7 -31 20 -41 29 -50 48 -101 85
-138 101 -11 6 -24 15 -28 21 -3 5 -11 8 -16 5 -5 -4 -9 -1 -9 5 0 6 -3 9 -8
7 -4 -3 -34 15 -66 40 -33 24 -94 60 -135 79 -42 19 -85 40 -96 46 -101 57
-153 81 -230 104 -89 26 -94 27 -415 29 -267 2 -332 6 -363 18 -20 9 -37 14
-37 11 0 -2 -18 5 -40 16 -22 11 -40 18 -40 16 0 -3 -28 7 -62 21 -35 14 -69
27 -78 29 -15 3 -140 48 -170 61 -8 3 -17 7 -20 8 -3 1 -12 4 -20 7 -33 12
-98 27 -150 34 -51 6 -139 11 -143 8z m503 -659 c57 -6 134 -16 160 -20 139
-25 206 -39 285 -61 33 -9 65 -17 70 -18 6 -1 36 -10 68 -21 95 -30 228 -172
296 -318 18 -37 34 -76 36 -87 2 -11 7 -25 10 -30 25 -41 40 -298 21 -370 -4
-14 -9 -35 -12 -48 -7 -34 -42 -122 -66 -167 -26 -49 -112 -177 -131 -196 -8
-8 -16 -19 -18 -25 -2 -6 -14 -24 -27 -40 -32 -41 -155 -212 -167 -232 -5 -9
-13 -19 -16 -22 -3 -3 -27 -36 -54 -75 -27 -38 -52 -72 -55 -75 -4 -3 -26 -34
-51 -69 -58 -83 -60 -87 -157 -221 -46 -63 -91 -126 -100 -139 -10 -13 -22
-28 -27 -35 -28 -30 -95 -148 -117 -206 -36 -92 -45 -126 -54 -207 -2 -24 -6
-62 -8 -85 -6 -54 -14 -90 -26 -123 -17 -44 -25 -118 -25 -225 1 -112 8 -167
30 -230 8 -22 15 -44 15 -48 0 -4 5 -23 10 -42 5 -19 10 -38 10 -42 0 -4 8
-27 16 -50 9 -24 17 -52 19 -63 2 -11 11 -44 20 -74 9 -30 18 -62 20 -70 2 -9
9 -32 15 -51 6 -19 13 -46 16 -60 2 -14 9 -36 14 -50 9 -27 90 -313 95 -339 2
-9 4 -18 6 -21 1 -3 3 -9 4 -15 2 -5 4 -13 5 -17 1 -5 3 -11 5 -15 1 -5 4 -15
7 -23 6 -15 32 -110 33 -120 1 -4 13 -46 45 -155 32 -108 31 -356 -1 -417 -5
-10 -6 -18 -2 -18 4 0 2 -5 -5 -12 -7 -7 -12 -18 -12 -25 0 -15 -67 -155 -78
-163 -4 -3 -16 -18 -26 -34 -54 -86 -173 -185 -297 -249 -83 -42 -84 -42 -189
-42 -58 0 -136 4 -175 8 -38 5 -87 10 -108 12 -21 2 -46 6 -55 9 -9 3 -35 8
-57 11 -22 4 -83 17 -135 30 -52 14 -106 27 -120 31 -14 3 -32 8 -40 11 -8 3
-23 8 -33 10 -79 15 -210 146 -285 283 -35 63 -77 183 -88 250 -24 144 3 335
66 462 37 75 110 188 122 188 4 0 8 4 8 9 0 8 65 101 137 196 5 6 24 33 43 60
19 28 38 52 42 53 4 2 8 8 8 14 0 5 6 15 13 23 6 7 30 39 52 71 22 31 48 66
57 76 10 10 16 18 13 18 -4 0 34 54 88 124 12 15 26 37 31 47 5 11 13 19 18
19 4 0 8 5 8 10 0 6 7 18 16 28 22 25 164 221 164 228 0 3 9 14 20 26 40 43
120 218 133 293 2 11 7 31 10 45 3 14 8 57 11 95 3 39 14 104 25 145 27 101
33 150 32 245 -1 82 -2 89 -20 165 -7 25 -14 56 -17 70 -2 14 -8 36 -13 50
-14 40 -38 122 -47 160 -9 41 -9 41 -16 60 -3 8 -11 33 -17 55 -6 22 -18 67
-28 100 -9 33 -18 65 -19 70 -1 6 -14 48 -27 95 -14 47 -35 119 -46 160 -11
41 -36 131 -56 200 -20 69 -38 132 -40 140 -2 8 -13 47 -24 85 -49 171 -58
331 -27 450 23 87 30 105 38 105 5 0 7 4 4 8 -7 12 52 121 102 187 68 89 182
185 267 224 55 25 101 45 107 45 3 1 9 4 12 7 7 7 150 3 236 -6z"/>
</g>
</svg>
